<?xml version="1.0" encoding="UTF-8"?>
<svg version="1.1" xmlns="http://www.w3.org/2000/svg" width="538" height="396">
<path d="M0,0 L538,0 L538,396 L0,396 Z " fill="#FEFEFE" transform="translate(0,0)"/>
<path d="M0,0 L12,0 L23,3 L32,8 L35,11 L34,15 L14,21 L5,27 L-1,35 L-6,45 L-12,63 L-17,85 L-20,99 L-26,119 L-33,132 L-44,144 L-60,156 L-65,161 L-68,172 L-74,177 L-77,178 L-97,178 L-103,174 L-105,171 L-104,166 L-103,165 L-74,164 L-73,158 L-82,157 L-81,119 L-78,95 L-72,73 L-64,56 L-54,40 L-46,30 L-37,20 L-24,10 L-8,2 Z " fill="#020202" transform="translate(326,174)"/>
<path d="M0,0 L21,0 L33,3 L45,10 L57,21 L66,32 L76,46 L87,67 L94,88 L99,110 L101,129 L101,161 L83,161 L71,156 L62,149 L53,140 L45,128 L40,115 L35,93 L32,68 L28,51 L23,38 L18,29 L10,20 L-4,13 L-11,10 L-10,6 L-2,1 Z " fill="#010101" transform="translate(133,170)"/>
<path d="M0,0 L5,0 L7,2 L6,8 L-1,20 L-8,39 L-11,50 L-14,54 L-17,53 L-19,48 L-23,24 L-24,16 L-18,9 L-6,2 Z " fill="#050505" transform="translate(316,121)"/>
<path d="M0,0 L11,0 L19,3 L27,10 L36,24 L44,42 L53,67 L52,71 L44,55 L33,30 L27,19 L19,9 L13,4 L4,4 L-4,9 L-10,16 L-22,37 L-32,55 L-34,54 L-28,39 L-20,23 L-12,9 L-4,2 Z " fill="#121212" transform="translate(232,45)"/>
<path d="M0,0 L15,0 L19,2 L19,8 L14,13 L-1,13 L-2,12 L-2,2 Z " fill="#0A0A0A" transform="translate(232,222)"/>
<path d="M0,0 L16,0 L18,2 L18,11 L15,13 L1,13 L-1,11 L-1,1 Z " fill="#0A0A0A" transform="translate(231,201)"/>
<path d="M0,0 L16,0 L18,2 L18,10 L16,12 L0,12 L-1,11 L-1,1 Z " fill="#030303" transform="translate(231,180)"/>
<path d="M0,0 L10,0 L13,3 L13,9 L10,11 L0,11 L-2,9 L-2,2 Z " fill="#0F0F0F" transform="translate(234,160)"/>
<path d="M0,0 L7,0 L12,4 L12,10 L10,12 L1,12 L-1,10 L-1,1 Z " fill="#0B0B0B" transform="translate(209,178)"/>
<path d="M0,0 L7,0 L8,1 L8,10 L6,12 L-3,12 L-4,11 L-4,3 Z " fill="#060606" transform="translate(262,178)"/>
<path d="M0,0 L7,0 L11,3 L11,10 L9,11 L0,11 L-2,9 L-2,2 Z " fill="#0B0B0B" transform="translate(234,141)"/>
<path d="M0,0 L9,0 L11,2 L11,8 L9,11 L1,12 L-1,7 L-1,1 Z " fill="#0C0C0C" transform="translate(257,158)"/>
<path d="M0,0 L7,0 L10,2 L9,10 L8,11 L0,11 L-2,9 L-2,1 Z " fill="#080808" transform="translate(213,158)"/>
<path d="M0,0 L7,0 L8,1 L8,9 L7,10 L-3,10 L-4,9 L-4,4 Z " fill="#060606" transform="translate(236,122)"/>
<path d="M0,0 L7,1 L10,5 L9,10 L8,11 L1,10 L-2,6 L-1,1 Z " fill="#121212" transform="translate(256,139)"/>
<path d="M0,0 L7,1 L7,9 L5,11 L-1,11 L-3,9 L-3,2 Z " fill="#0F0F0F" transform="translate(216,139)"/>
<path d="M0,0 L9,0 L8,5 L4,11 L0,12 L-2,7 L-2,2 Z " fill="#0C0C0C" transform="translate(260,199)"/>
<path d="M0,0 L7,0 L11,3 L11,10 L7,12 L0,4 Z " fill="#0D0D0D" transform="translate(210,199)"/>
<path d="M0,0 L4,1 L5,2 L5,11 L4,12 L-2,12 L-4,9 L-4,3 Z " fill="#0D0D0D" transform="translate(281,154)"/>
<path d="M0,0 L8,0 L9,1 L8,8 L6,10 L1,10 L-1,8 L-1,1 Z " fill="#070707" transform="translate(235,244)"/>
<path d="M0,0 L7,1 L9,6 L5,10 L0,9 L-2,6 L-1,1 Z " fill="#111111" transform="translate(281,175)"/>
<path d="M0,0 L6,1 L7,3 L7,10 L-1,10 L-2,8 L-2,2 Z " fill="#0A0A0A" transform="translate(255,120)"/>
<path d="M0,0 L6,1 L7,3 L7,9 L6,10 L0,10 L-2,9 L-2,2 Z " fill="#0E0E0E" transform="translate(195,156)"/>
<path d="M0,0 L5,0 L7,3 L7,9 L6,11 L2,10 L-3,4 L-2,1 Z " fill="#1A1A1A" transform="translate(193,175)"/>
<path d="M0,0 L5,0 L6,2 L6,9 L-1,11 L-2,10 L-2,2 Z " fill="#0A0A0A" transform="translate(277,136)"/>
<path d="M0,0 L6,2 L7,3 L7,8 L5,10 L-1,10 L-2,9 L-2,3 Z " fill="#0B0B0B" transform="translate(218,120)"/>
<path d="M0,0 L5,0 L7,2 L6,8 L4,10 L0,9 L-1,7 L-1,1 Z " fill="#0B0B0B" transform="translate(199,137)"/>
<path d="M0,0 L4,1 L5,2 L5,9 L4,10 L-1,10 L-2,8 L-2,2 Z " fill="#0A0A0A" transform="translate(253,103)"/>
<path d="M0,0 L4,1 L5,2 L5,9 L0,10 L-2,8 L-2,2 Z " fill="#0C0C0C" transform="translate(272,118)"/>
<path d="M0,0 L5,0 L6,1 L6,7 L5,8 L-1,8 L-2,2 Z " fill="#080808" transform="translate(236,105)"/>
<path d="M0,0 L4,2 L4,8 L0,10 L-2,8 L-2,2 Z " fill="#121212" transform="translate(222,103)"/>
<path d="M0,0 L5,1 L5,7 L0,8 L-1,2 Z " fill="#0F0F0F" transform="translate(203,120)"/>
<path d="M0,0 L4,2 L4,8 L0,9 L-1,8 L-1,2 Z " fill="#0F0F0F" transform="translate(208,101)"/>
<path d="M0,0 L5,1 L5,7 L0,6 Z " fill="#0A0A0A" transform="translate(267,101)"/>
<path d="M0,0 L3,1 L4,7 L0,8 L-1,1 Z " fill="#111111" transform="translate(250,86)"/>
<path d="M0,0 L4,1 L3,6 L-1,7 Z " fill="#161616" transform="translate(213,86)"/>
<path d="M0,0 L3,1 L3,7 L0,8 L-1,1 Z " fill="#1B1B1B" transform="translate(237,88)"/>
<path d="M0,0 L2,0 L2,8 L-1,8 Z " fill="#242424" transform="translate(225,86)"/>
<path d="M0,0 L1,3 L-2,8 L-4,7 L-2,1 Z " fill="#2B2B2B" transform="translate(202,92)"/>
<path d="M0,0 L4,1 L3,5 L0,4 Z " fill="#1E1E1E" transform="translate(262,87)"/>
</svg>
