<?xml version="1.0" standalone="no"?>
<!DOCTYPE svg PUBLIC "-//W3C//DTD SVG 20010904//EN"
 "http://www.w3.org/TR/2001/REC-SVG-20010904/DTD/svg10.dtd">
<svg version="1.0" xmlns="http://www.w3.org/2000/svg"
 width="534.000000pt" height="322.000000pt" viewBox="0 0 534.000000 322.000000"
 preserveAspectRatio="xMidYMid meet">

<g transform="translate(0.000000,322.000000) scale(0.100000,-0.100000)"
fill="#000000" stroke="none">
<path d="M2703 3090 c-90 -40 -193 -162 -259 -306 -37 -80 -74 -217 -74 -278
0 -37 1 -38 28 -32 59 15 245 19 299 6 30 -6 58 -9 61 -5 4 4 10 59 13 124 7
145 27 194 123 299 36 40 66 79 66 86 0 26 -41 65 -102 95 -71 36 -97 38 -155
11z"/>
<path d="M2465 2398 c-85 -31 -206 -163 -282 -305 -54 -101 -107 -256 -134
-390 -27 -135 -38 -494 -19 -655 31 -272 150 -553 296 -702 121 -125 246 -154
372 -86 183 97 334 394 394 773 8 50 13 171 13 307 0 187 -4 246 -22 346 -51
279 -155 513 -282 627 -70 63 -135 90 -226 94 -44 1 -93 -2 -110 -9z"/>
<path d="M3371 2392 l-34 -7 42 -50 c23 -27 69 -81 102 -120 217 -249 322
-650 279 -1063 -31 -291 -110 -489 -287 -719 l-64 -83 69 0 c134 0 255 64 391
206 186 193 279 404 302 684 20 238 -9 456 -87 634 -102 237 -298 439 -479
495 -70 22 -183 33 -234 23z"/>
<path d="M1549 2367 c-99 -34 -175 -83 -269 -177 -93 -92 -138 -154 -199 -278
-88 -175 -121 -326 -121 -552 0 -177 17 -287 66 -419 43 -115 131 -288 179
-353 91 -123 309 -238 451 -238 l65 0 -65 79 c-162 199 -238 354 -282 577 -22
113 -26 458 -5 579 48 292 141 489 326 692 41 46 75 89 75 98 0 25 -139 20
-221 -8z"/>
<path d="M2009 2376 c-72 -19 -138 -63 -225 -150 -92 -93 -145 -169 -214 -311
-91 -185 -120 -330 -120 -595 0 -201 13 -301 56 -429 110 -332 346 -587 559
-607 143 -13 154 19 61 173 -136 226 -192 437 -203 759 -9 277 21 519 91 727
41 124 73 189 155 316 34 52 61 98 61 103 0 28 -138 37 -221 14z"/>
<path d="M2942 2374 c-21 -15 -21 -16 -6 -47 9 -18 36 -64 61 -104 81 -132
146 -319 186 -538 18 -101 22 -158 22 -355 0 -206 -3 -249 -23 -349 -45 -220
-121 -440 -201 -576 -52 -89 -52 -101 2 -116 225 -60 511 223 640 636 35 113
47 211 47 398 0 184 -18 324 -56 442 -84 260 -252 499 -405 574 -101 49 -224
66 -267 35z"/>
</g>
</svg>
