<?xml version="1.0" encoding="UTF-8"?>
<svg version="1.1" xmlns="http://www.w3.org/2000/svg" width="464" height="348">
<path d="M0,0 L464,0 L464,348 L0,348 Z " fill="#FEFEFE" transform="translate(0,0)"/>
<path d="M0,0 L18,0 L31,2 L47,8 L59,15 L72,26 L82,39 L88,52 L91,62 L94,76 L96,78 L118,80 L131,85 L140,91 L146,96 L152,104 L158,116 L160,126 L160,146 L154,162 L148,172 L143,178 L131,187 L118,192 L97,193 L-99,193 L-119,192 L-133,190 L-144,184 L-154,175 L-160,167 L-165,157 L-169,143 L-169,131 L-165,117 L-159,106 L-148,94 L-139,87 L-131,83 L-120,79 L-116,74 L-111,62 L-105,54 L-95,45 L-82,39 L-73,37 L-60,36 L-52,32 L-41,20 L-29,11 L-13,3 Z " fill="#000000" transform="translate(195,5)"/>
<path d="M0,0 L5,1 L9,9 L11,17 L11,33 L8,42 L2,46 L-14,46 L-20,42 L-24,35 L-24,25 L-19,17 L-13,10 L-3,2 Z " fill="#030303" transform="translate(239,262)"/>
<path d="M0,0 L4,0 L9,10 L12,21 L12,33 L8,41 L3,45 L0,46 L-13,46 L-19,42 L-22,38 L-23,35 L-23,22 L-17,14 L-10,7 Z " fill="#030303" transform="translate(153,262)"/>
<path d="M0,0 L5,1 L8,7 L11,21 L11,33 L7,41 L2,45 L-1,46 L-13,46 L-21,41 L-25,34 L-25,27 L-19,16 L-9,6 Z " fill="#030303" transform="translate(202,213)"/>
<path d="M0,0 L5,1 L9,11 L10,19 L10,34 L7,39 L1,44 L-4,46 L-13,46 L-19,42 L-23,37 L-24,35 L-24,23 L-18,13 L-9,5 Z " fill="#020202" transform="translate(117,213)"/>
<path d="M0,0 L4,0 L8,10 L10,19 L10,36 L6,42 L2,45 L-1,46 L-11,46 L-19,41 L-24,34 L-25,25 L-19,16 L-12,9 Z " fill="#040404" transform="translate(286,213)"/>
</svg>
